<?xml version="1.0" standalone="no"?>
<!DOCTYPE svg PUBLIC "-//W3C//DTD SVG 20010904//EN"
 "http://www.w3.org/TR/2001/REC-SVG-20010904/DTD/svg10.dtd">
<svg version="1.0" xmlns="http://www.w3.org/2000/svg"
 width="700.000000pt" height="700.000000pt" viewBox="0 0 700.000000 700.000000"
 preserveAspectRatio="xMidYMid meet">
<metadata>
Created by potrace 1.14, written by Peter Selinger 2001-2017
</metadata>
<g transform="translate(0.000000,700.000000) scale(0.100000,-0.100000)"
fill="#000000" stroke="none">
<path d="M3460 6469 c-46 -7 -91 -24 -145 -56 -25 -15 -178 -104 -237 -138
-57 -33 -319 -184 -357 -207 -25 -15 -57 -33 -71 -40 -26 -15 -620 -357 -950
-548 -102 -59 -309 -178 -460 -265 -598 -345 -591 -339 -633 -434 -23 -52 -28
-165 -9 -205 7 -14 17 -37 24 -51 25 -54 85 -97 340 -245 144 -84 280 -162
301 -173 20 -12 34 -24 30 -28 -5 -4 -98 -58 -208 -122 -110 -63 -240 -138
-290 -166 -156 -90 -208 -164 -208 -291 0 -121 54 -200 190 -280 46 -28 85
-50 87 -50 2 0 60 -33 127 -73 68 -40 149 -87 179 -104 83 -45 131 -75 128
-78 -2 -1 -79 -47 -173 -100 -470 -271 -442 -253 -486 -313 -81 -111 -68 -273
29 -370 21 -20 166 -111 322 -201 157 -91 387 -223 512 -295 124 -72 241 -140
260 -150 18 -11 87 -51 153 -89 167 -96 166 -96 305 -177 69 -40 134 -78 145
-84 29 -17 311 -178 345 -198 153 -90 350 -204 388 -225 26 -14 88 -49 137
-78 176 -103 190 -108 269 -106 67 1 107 14 181 58 17 10 73 43 125 73 52 30
104 60 115 67 11 7 27 16 35 20 8 4 47 26 85 48 39 23 90 53 115 67 117 67
797 459 810 468 8 5 29 17 45 26 17 9 158 91 315 182 157 91 301 174 320 185
366 207 652 378 681 407 109 111 112 288 6 401 -27 29 -127 99 -142 99 -2 0
-45 25 -95 55 -50 30 -93 55 -96 55 -3 0 -18 8 -32 19 -15 10 -47 29 -72 43
-94 52 -146 82 -173 99 l-28 17 93 53 c51 30 102 59 113 66 11 7 26 15 34 19
8 4 76 43 150 87 75 44 152 88 171 99 55 31 99 78 127 136 53 108 27 249 -61
330 -22 21 -173 114 -334 206 l-293 169 89 52 c48 29 108 63 133 77 194 108
383 224 409 251 82 81 107 218 60 322 -31 69 -87 119 -221 195 -63 36 -122 69
-131 75 -9 5 -29 17 -45 26 -15 8 -102 58 -193 111 -245 141 -1400 808 -1435
828 -16 10 -75 43 -130 75 -55 32 -116 67 -135 78 -19 10 -72 41 -118 68 -45
27 -87 49 -92 49 -6 0 -10 5 -10 10 0 6 -4 10 -9 10 -5 0 -62 31 -128 68 -65
37 -127 71 -138 76 -40 15 -101 22 -145 15z"/>
</g>
</svg>
